<svg xmlns="http://www.w3.org/2000/svg" viewBox="0 0 64 64" fill="none">
  <defs>
    <linearGradient id="shieldGrad" x1="0%" y1="0%" x2="100%" y2="100%">
      <stop offset="0%" stop-color="#00ff88"/>
      <stop offset="100%" stop-color="#00cc6a"/>
    </linearGradient>
    <linearGradient id="lockGrad" x1="0%" y1="0%" x2="0%" y2="100%">
      <stop offset="0%" stop-color="#0a0e17"/>
      <stop offset="100%" stop-color="#111827"/>
    </linearGradient>
  </defs>
  <!-- Shield -->
  <path d="M32 4L8 16v16c0 14.4 10.24 27.84 24 32 13.76-4.16 24-17.6 24-32V16L32 4z" fill="url(#shieldGrad)" opacity="0.9"/>
  <path d="M32 8L12 18v14c0 12.4 8.64 24.04 20 27.6 11.36-3.56 20-15.2 20-27.6V18L32 8z" fill="url(#lockGrad)"/>
  <!-- Lock body -->
  <rect x="23" y="30" width="18" height="14" rx="3" fill="url(#shieldGrad)" opacity="0.95"/>
  <!-- Lock shackle -->
  <path d="M25 30v-5a7 7 0 0114 0v5" stroke="#00ff88" stroke-width="2.5" fill="none" stroke-linecap="round"/>
  <!-- Keyhole -->
  <circle cx="32" cy="36" r="2.5" fill="#0a0e17"/>
  <rect x="31" y="37" width="2" height="4" rx="1" fill="#0a0e17"/>
</svg>
